<mxfile host="app.diagrams.net" modified="2023-11-05T14:43:14.973Z" agent="Mozilla/5.0 (Windows NT 10.0; Win64; x64) AppleWebKit/537.36 (KHTML, like Gecko) Chrome/119.0.0.0 Safari/537.36" etag="H2fjDlWeV5SgiwrhmvCR" version="22.0.8" type="device">
  <diagram name="Page-1" id="zidCng7HodhdhZM7nLHo">
    <mxGraphModel dx="989" dy="530" grid="1" gridSize="10" guides="1" tooltips="1" connect="1" arrows="1" fold="1" page="1" pageScale="1" pageWidth="850" pageHeight="1100" math="0" shadow="0">
      <root>
        <mxCell id="0" />
        <mxCell id="1" parent="0" />
        <mxCell id="tigXcck2cauMA0Svn3TU-2" style="edgeStyle=orthogonalEdgeStyle;rounded=0;orthogonalLoop=1;jettySize=auto;html=1;entryX=0.5;entryY=1;entryDx=0;entryDy=0;endArrow=none;endFill=0;" edge="1" parent="1" source="tigXcck2cauMA0Svn3TU-1" target="C-cIICrRX4lIGrgm3GJK-32">
          <mxGeometry relative="1" as="geometry" />
        </mxCell>
        <mxCell id="tigXcck2cauMA0Svn3TU-1" value="" style="image;aspect=fixed;perimeter=ellipsePerimeter;html=1;align=center;shadow=0;dashed=0;spacingTop=3;image=img/lib/active_directory/generic_server.svg;" vertex="1" parent="1">
          <mxGeometry x="111.38999999999997" y="420" width="33.6" height="60" as="geometry" />
        </mxCell>
        <mxCell id="C-cIICrRX4lIGrgm3GJK-53" value="" style="ellipse;whiteSpace=wrap;html=1;aspect=fixed;dashed=1;fontFamily=Lexend;fontSource=https%3A%2F%2Ffonts.googleapis.com%2Fcss%3Ffamily%3DLexend;" parent="1" vertex="1">
          <mxGeometry x="462.79999999999995" y="400" width="160" height="160" as="geometry" />
        </mxCell>
        <mxCell id="C-cIICrRX4lIGrgm3GJK-32" value="" style="rounded=1;whiteSpace=wrap;html=1;dashed=1;" parent="1" vertex="1">
          <mxGeometry x="50" y="164" width="155" height="216" as="geometry" />
        </mxCell>
        <mxCell id="C-cIICrRX4lIGrgm3GJK-1" value="" style="points=[[0.03,0.03,0],[0.5,0,0],[0.97,0.03,0],[1,0.4,0],[0.97,0.745,0],[0.5,1,0],[0.03,0.745,0],[0,0.4,0]];verticalLabelPosition=bottom;sketch=0;html=1;verticalAlign=top;aspect=fixed;align=center;pointerEvents=1;shape=mxgraph.cisco19.workstation;fillColor=#005073;strokeColor=none;" parent="1" vertex="1">
          <mxGeometry x="130" y="264" width="50" height="40" as="geometry" />
        </mxCell>
        <mxCell id="C-cIICrRX4lIGrgm3GJK-2" value="" style="outlineConnect=0;dashed=0;verticalLabelPosition=bottom;verticalAlign=top;align=center;html=1;shape=mxgraph.aws3.cache_node;fillColor=#2E73B8;gradientColor=none;" parent="1" vertex="1">
          <mxGeometry x="125" y="284" width="27.62" height="29" as="geometry" />
        </mxCell>
        <mxCell id="C-cIICrRX4lIGrgm3GJK-3" value="" style="dashed=0;outlineConnect=0;html=1;align=center;labelPosition=center;verticalLabelPosition=bottom;verticalAlign=top;shape=mxgraph.weblogos.json" parent="1" vertex="1">
          <mxGeometry x="70" y="280.1" width="30.38" height="32.9" as="geometry" />
        </mxCell>
        <mxCell id="C-cIICrRX4lIGrgm3GJK-4" value="" style="endArrow=none;html=1;rounded=0;" parent="1" edge="1">
          <mxGeometry width="50" height="50" relative="1" as="geometry">
            <mxPoint x="99.75" y="300.14" as="sourcePoint" />
            <mxPoint x="125.25" y="300.14" as="targetPoint" />
          </mxGeometry>
        </mxCell>
        <mxCell id="C-cIICrRX4lIGrgm3GJK-5" value="" style="points=[[0.03,0.03,0],[0.5,0,0],[0.97,0.03,0],[1,0.4,0],[0.97,0.745,0],[0.5,1,0],[0.03,0.745,0],[0,0.4,0]];verticalLabelPosition=bottom;sketch=0;html=1;verticalAlign=top;aspect=fixed;align=center;pointerEvents=1;shape=mxgraph.cisco19.workstation;fillColor=#005073;strokeColor=none;" parent="1" vertex="1">
          <mxGeometry x="130" y="196" width="50" height="40" as="geometry" />
        </mxCell>
        <mxCell id="C-cIICrRX4lIGrgm3GJK-6" value="" style="outlineConnect=0;dashed=0;verticalLabelPosition=bottom;verticalAlign=top;align=center;html=1;shape=mxgraph.aws3.cache_node;fillColor=#2E73B8;gradientColor=none;" parent="1" vertex="1">
          <mxGeometry x="125" y="216" width="27.62" height="29" as="geometry" />
        </mxCell>
        <mxCell id="C-cIICrRX4lIGrgm3GJK-13" value="Dynamic DNS&lt;br&gt;(Simulator)" style="text;html=1;align=center;verticalAlign=middle;resizable=0;points=[];autosize=1;strokeColor=none;fillColor=none;fontFamily=Lexend;fontSource=https%3A%2F%2Ffonts.googleapis.com%2Fcss%3Ffamily%3DLexend;" parent="1" vertex="1">
          <mxGeometry x="310" y="206" width="100" height="40" as="geometry" />
        </mxCell>
        <mxCell id="C-cIICrRX4lIGrgm3GJK-36" style="edgeStyle=orthogonalEdgeStyle;rounded=0;orthogonalLoop=1;jettySize=auto;html=1;entryX=0;entryY=0.5;entryDx=0;entryDy=0;endArrow=none;endFill=0;" parent="1" source="C-cIICrRX4lIGrgm3GJK-14" target="C-cIICrRX4lIGrgm3GJK-28" edge="1">
          <mxGeometry relative="1" as="geometry" />
        </mxCell>
        <mxCell id="C-cIICrRX4lIGrgm3GJK-14" value="" style="image;aspect=fixed;html=1;points=[];align=center;fontSize=12;image=img/lib/azure2/networking/DNS_Zones.svg;" parent="1" vertex="1">
          <mxGeometry x="328" y="248" width="64" height="64" as="geometry" />
        </mxCell>
        <mxCell id="C-cIICrRX4lIGrgm3GJK-16" style="edgeStyle=orthogonalEdgeStyle;rounded=0;orthogonalLoop=1;jettySize=auto;html=1;entryX=1;entryY=0.4;entryDx=0;entryDy=0;entryPerimeter=0;endArrow=none;endFill=0;" parent="1" source="C-cIICrRX4lIGrgm3GJK-14" target="C-cIICrRX4lIGrgm3GJK-5" edge="1">
          <mxGeometry relative="1" as="geometry" />
        </mxCell>
        <mxCell id="C-cIICrRX4lIGrgm3GJK-17" style="edgeStyle=orthogonalEdgeStyle;rounded=0;orthogonalLoop=1;jettySize=auto;html=1;entryX=1;entryY=0.4;entryDx=0;entryDy=0;entryPerimeter=0;endArrow=none;endFill=0;" parent="1" source="C-cIICrRX4lIGrgm3GJK-14" target="C-cIICrRX4lIGrgm3GJK-1" edge="1">
          <mxGeometry relative="1" as="geometry" />
        </mxCell>
        <mxCell id="C-cIICrRX4lIGrgm3GJK-18" style="edgeStyle=orthogonalEdgeStyle;rounded=0;orthogonalLoop=1;jettySize=auto;html=1;entryX=1;entryY=0.4;entryDx=0;entryDy=0;entryPerimeter=0;endArrow=none;endFill=0;" parent="1" edge="1">
          <mxGeometry relative="1" as="geometry">
            <mxPoint x="331.9999999999999" y="279.9999999999999" as="sourcePoint" />
            <mxPoint x="184" y="346" as="targetPoint" />
            <Array as="points">
              <mxPoint x="254" y="280" />
              <mxPoint x="254" y="346" />
            </Array>
          </mxGeometry>
        </mxCell>
        <mxCell id="C-cIICrRX4lIGrgm3GJK-19" value="" style="dashed=0;outlineConnect=0;html=1;align=center;labelPosition=center;verticalLabelPosition=bottom;verticalAlign=top;shape=mxgraph.weblogos.json" parent="1" vertex="1">
          <mxGeometry x="70" y="213.10000000000002" width="30.38" height="32.9" as="geometry" />
        </mxCell>
        <mxCell id="C-cIICrRX4lIGrgm3GJK-20" value="" style="endArrow=none;html=1;rounded=0;" parent="1" edge="1">
          <mxGeometry width="50" height="50" relative="1" as="geometry">
            <mxPoint x="99.75" y="233.14" as="sourcePoint" />
            <mxPoint x="125.25" y="233.14" as="targetPoint" />
          </mxGeometry>
        </mxCell>
        <mxCell id="C-cIICrRX4lIGrgm3GJK-23" value="..." style="text;html=1;strokeColor=none;fillColor=none;align=center;verticalAlign=middle;whiteSpace=wrap;rounded=0;fontFamily=Lexend;fontSource=https%3A%2F%2Ffonts.googleapis.com%2Fcss%3Ffamily%3DLexend;" parent="1" vertex="1">
          <mxGeometry x="137" y="328" width="60" height="30" as="geometry" />
        </mxCell>
        <mxCell id="C-cIICrRX4lIGrgm3GJK-50" style="edgeStyle=orthogonalEdgeStyle;rounded=0;orthogonalLoop=1;jettySize=auto;html=1;endArrow=none;endFill=0;" parent="1" source="C-cIICrRX4lIGrgm3GJK-28" edge="1">
          <mxGeometry relative="1" as="geometry">
            <mxPoint x="540.9999999999998" y="380" as="targetPoint" />
          </mxGeometry>
        </mxCell>
        <mxCell id="C-cIICrRX4lIGrgm3GJK-28" value="" style="rounded=1;whiteSpace=wrap;html=1;dashed=1;" parent="1" vertex="1">
          <mxGeometry x="451" y="230" width="180" height="100" as="geometry" />
        </mxCell>
        <mxCell id="C-cIICrRX4lIGrgm3GJK-24" value="" style="image;aspect=fixed;perimeter=ellipsePerimeter;html=1;align=center;shadow=0;dashed=0;spacingTop=3;image=img/lib/active_directory/generic_server.svg;" parent="1" vertex="1">
          <mxGeometry x="461" y="240" width="33.6" height="60" as="geometry" />
        </mxCell>
        <mxCell id="C-cIICrRX4lIGrgm3GJK-26" value="" style="image;aspect=fixed;perimeter=ellipsePerimeter;html=1;align=center;shadow=0;dashed=0;spacingTop=3;image=img/lib/active_directory/generic_server.svg;" parent="1" vertex="1">
          <mxGeometry x="524.2" y="240" width="33.6" height="60" as="geometry" />
        </mxCell>
        <mxCell id="C-cIICrRX4lIGrgm3GJK-27" value="" style="image;aspect=fixed;perimeter=ellipsePerimeter;html=1;align=center;shadow=0;dashed=0;spacingTop=3;image=img/lib/active_directory/generic_server.svg;" parent="1" vertex="1">
          <mxGeometry x="589.2" y="240" width="33.6" height="60" as="geometry" />
        </mxCell>
        <mxCell id="C-cIICrRX4lIGrgm3GJK-29" value="ZeroMQ" style="text;html=1;align=center;verticalAlign=middle;resizable=0;points=[];autosize=1;strokeColor=none;fillColor=none;fontFamily=Lexend;fontSource=https%3A%2F%2Ffonts.googleapis.com%2Fcss%3Ffamily%3DLexend;" parent="1" vertex="1">
          <mxGeometry x="451" y="300" width="70" height="30" as="geometry" />
        </mxCell>
        <mxCell id="C-cIICrRX4lIGrgm3GJK-33" value="Flask" style="text;html=1;align=center;verticalAlign=middle;resizable=0;points=[];autosize=1;strokeColor=none;fillColor=none;fontFamily=Lexend;fontSource=https%3A%2F%2Ffonts.googleapis.com%2Fcss%3Ffamily%3DLexend;" parent="1" vertex="1">
          <mxGeometry x="50.379999999999995" y="350" width="50" height="30" as="geometry" />
        </mxCell>
        <mxCell id="C-cIICrRX4lIGrgm3GJK-34" value="Clients" style="text;html=1;align=center;verticalAlign=middle;resizable=0;points=[];autosize=1;strokeColor=none;fillColor=none;fontFamily=Lexend;fontSource=https%3A%2F%2Ffonts.googleapis.com%2Fcss%3Ffamily%3DLexend;" parent="1" vertex="1">
          <mxGeometry x="44.99999999999999" y="166" width="60" height="30" as="geometry" />
        </mxCell>
        <mxCell id="C-cIICrRX4lIGrgm3GJK-52" value="&lt;font style=&quot;font-size: 7px;&quot; face=&quot;Lexend&quot;&gt;Berkeley&lt;/font&gt;" style="shape=cylinder3;whiteSpace=wrap;html=1;boundedLbl=1;backgroundOutline=1;size=15;" parent="1" vertex="1">
          <mxGeometry x="522.25" y="380" width="37.5" height="50" as="geometry" />
        </mxCell>
        <mxCell id="C-cIICrRX4lIGrgm3GJK-54" value="1" style="text;html=1;align=center;verticalAlign=middle;resizable=0;points=[];autosize=1;strokeColor=none;fillColor=none;fontFamily=Lexend;fontSource=https%3A%2F%2Ffonts.googleapis.com%2Fcss%3Ffamily%3DLexend;" parent="1" vertex="1">
          <mxGeometry x="526" y="380" width="30" height="30" as="geometry" />
        </mxCell>
        <mxCell id="C-cIICrRX4lIGrgm3GJK-55" value="&lt;font style=&quot;font-size: 7px;&quot; face=&quot;Lexend&quot;&gt;Berkeley&lt;/font&gt;" style="shape=cylinder3;whiteSpace=wrap;html=1;boundedLbl=1;backgroundOutline=1;size=15;" parent="1" vertex="1">
          <mxGeometry x="593.5" y="420" width="37.5" height="50" as="geometry" />
        </mxCell>
        <mxCell id="C-cIICrRX4lIGrgm3GJK-56" value="2" style="text;html=1;align=center;verticalAlign=middle;resizable=0;points=[];autosize=1;strokeColor=none;fillColor=none;fontFamily=Lexend;fontSource=https%3A%2F%2Ffonts.googleapis.com%2Fcss%3Ffamily%3DLexend;" parent="1" vertex="1">
          <mxGeometry x="597.25" y="420" width="30" height="30" as="geometry" />
        </mxCell>
        <mxCell id="C-cIICrRX4lIGrgm3GJK-57" value="&lt;font style=&quot;font-size: 7px;&quot; face=&quot;Lexend&quot;&gt;Berkeley&lt;/font&gt;" style="shape=cylinder3;whiteSpace=wrap;html=1;boundedLbl=1;backgroundOutline=1;size=15;" parent="1" vertex="1">
          <mxGeometry x="589.75" y="500" width="37.5" height="50" as="geometry" />
        </mxCell>
        <mxCell id="C-cIICrRX4lIGrgm3GJK-58" value="3" style="text;html=1;align=center;verticalAlign=middle;resizable=0;points=[];autosize=1;strokeColor=none;fillColor=none;fontFamily=Lexend;fontSource=https%3A%2F%2Ffonts.googleapis.com%2Fcss%3Ffamily%3DLexend;" parent="1" vertex="1">
          <mxGeometry x="593.5" y="500" width="30" height="30" as="geometry" />
        </mxCell>
        <mxCell id="C-cIICrRX4lIGrgm3GJK-59" value="&lt;font style=&quot;font-size: 7px;&quot; face=&quot;Lexend&quot;&gt;Berkeley&lt;/font&gt;" style="shape=cylinder3;whiteSpace=wrap;html=1;boundedLbl=1;backgroundOutline=1;size=15;" parent="1" vertex="1">
          <mxGeometry x="526" y="540" width="37.5" height="50" as="geometry" />
        </mxCell>
        <mxCell id="C-cIICrRX4lIGrgm3GJK-60" value="4" style="text;html=1;align=center;verticalAlign=middle;resizable=0;points=[];autosize=1;strokeColor=none;fillColor=none;fontFamily=Lexend;fontSource=https%3A%2F%2Ffonts.googleapis.com%2Fcss%3Ffamily%3DLexend;" parent="1" vertex="1">
          <mxGeometry x="529.75" y="540" width="30" height="30" as="geometry" />
        </mxCell>
        <mxCell id="C-cIICrRX4lIGrgm3GJK-61" value="&lt;font style=&quot;font-size: 7px;&quot; face=&quot;Lexend&quot;&gt;Berkeley&lt;/font&gt;" style="shape=cylinder3;whiteSpace=wrap;html=1;boundedLbl=1;backgroundOutline=1;size=15;" parent="1" vertex="1">
          <mxGeometry x="459.04999999999995" y="500" width="37.5" height="50" as="geometry" />
        </mxCell>
        <mxCell id="C-cIICrRX4lIGrgm3GJK-62" value="5" style="text;html=1;align=center;verticalAlign=middle;resizable=0;points=[];autosize=1;strokeColor=none;fillColor=none;fontFamily=Lexend;fontSource=https%3A%2F%2Ffonts.googleapis.com%2Fcss%3Ffamily%3DLexend;" parent="1" vertex="1">
          <mxGeometry x="462.79999999999995" y="500" width="30" height="30" as="geometry" />
        </mxCell>
        <mxCell id="C-cIICrRX4lIGrgm3GJK-63" value="&lt;font style=&quot;font-size: 7px;&quot; face=&quot;Lexend&quot;&gt;Berkeley&lt;/font&gt;" style="shape=cylinder3;whiteSpace=wrap;html=1;boundedLbl=1;backgroundOutline=1;size=15;" parent="1" vertex="1">
          <mxGeometry x="459.04999999999995" y="420" width="37.5" height="50" as="geometry" />
        </mxCell>
        <mxCell id="C-cIICrRX4lIGrgm3GJK-64" value="6" style="text;html=1;align=center;verticalAlign=middle;resizable=0;points=[];autosize=1;strokeColor=none;fillColor=none;fontFamily=Lexend;fontSource=https%3A%2F%2Ffonts.googleapis.com%2Fcss%3Ffamily%3DLexend;" parent="1" vertex="1">
          <mxGeometry x="462.79999999999995" y="420" width="30" height="30" as="geometry" />
        </mxCell>
        <mxCell id="C-cIICrRX4lIGrgm3GJK-66" value="Each Database replicate to the next 2 Databases" style="ellipse;whiteSpace=wrap;html=1;aspect=fixed;strokeColor=none;" parent="1" vertex="1">
          <mxGeometry x="502.79999999999995" y="440" width="80" height="80" as="geometry" />
        </mxCell>
        <mxCell id="C-cIICrRX4lIGrgm3GJK-67" value="&lt;font style=&quot;font-size: 7px;&quot; face=&quot;Lexend&quot;&gt;SQLITE&lt;/font&gt;" style="shape=cylinder3;whiteSpace=wrap;html=1;boundedLbl=1;backgroundOutline=1;size=15;" parent="1" vertex="1">
          <mxGeometry x="128.74" y="440" width="37.5" height="50" as="geometry" />
        </mxCell>
        <mxCell id="C-cIICrRX4lIGrgm3GJK-68" value="User Authentication&lt;br&gt;" style="text;html=1;align=center;verticalAlign=middle;resizable=0;points=[];autosize=1;strokeColor=none;fillColor=none;fontFamily=Lexend;fontSource=https%3A%2F%2Ffonts.googleapis.com%2Fcss%3Ffamily%3DLexend;" parent="1" vertex="1">
          <mxGeometry x="58.19" y="490" width="140" height="30" as="geometry" />
        </mxCell>
      </root>
    </mxGraphModel>
  </diagram>
</mxfile>
